Coordinates
version=1
nRows=24
nColumns=24
inDegrees=yes

Units are S.I. units (second, meters, Newtons, ...)
Angles are in degrees.

endheader
time	pelvis_tilt	pelvis_list	pelvis_rotation	pelvis_tx	pelvis_ty	pelvis_tz	hip_flexion_r	hip_adduction_r	hip_rotation_r	knee_angle_r	ankle_angle_r	subtalar_angle_r	mtp_angle_r	hip_flexion_l	hip_adduction_l	hip_rotation_l	knee_angle_l	ankle_angle_l	subtalar_angle_l	mtp_angle_l	lumbar_extension	lumbar_bending	lumbar_rotation
      0.50000000	      4.54600921	      0.39873955	     -0.37521419	      0.58956083	      1.03279336	     -0.02152613	     19.63342332	     -4.32333710	    -10.08085115	    -19.94873537	      0.96313822	     -0.00000393	      0.00000000	    -14.43747815	      3.65721725	     -0.10610329	     -2.07359594	      7.32408966	      0.00000005	      0.00000000	    -17.18301869	     -2.97189240	     -5.45734788
      0.51666667	      4.39009582	      0.96924293	     -0.28187691	      0.58825200	      1.02923029	     -0.02075454	     19.16663077	     -4.38623589	     -9.53320511	    -13.74593986	      0.68556280	     -0.00000288	      0.00000000	    -15.69177082	      4.16717973	      0.16755598	     -1.49012791	      7.76431024	      0.00000014	      0.00000000	    -17.05628798	     -3.45594330	     -5.66265769
      0.53333333	      4.22127146	      1.53744943	      0.04333106	      0.58721732	      1.02532181	     -0.02026264	     18.68552146	     -4.58921661	     -8.65985258	     -8.17233837	      0.70372387	     -0.00000181	      0.00000000	    -16.82633386	      4.59117801	      0.72916886	     -1.16646753	      8.32701434	      0.00000023	      0.00000000	    -16.88868545	     -3.84809938	     -5.80584629
      0.55000000	      4.12877129	      2.12038065	     -0.04904050	      0.58674602	      1.02133463	     -0.01936258	     18.25229090	     -4.81113290	     -7.12813513	     -3.54206170	      0.94169184	     -0.00000107	      0.00000000	    -18.11292272	      5.13467604	      0.92400781	     -0.78331171	      8.80032614	      0.00000035	      0.00000000	    -16.76195220	     -4.26072686	     -5.84629866
      0.56666667	      4.03519395	      2.58580998	     -0.04513292	      0.58585281	      1.01740113	     -0.01866810	     18.19685443	     -5.08432763	     -5.69825707	     -0.57452993	      1.45022052	     -0.00000071	      0.00000000	    -19.16328547	      5.51976507	      1.26182699	     -0.84249001	      9.41517074	      0.00000046	      0.00000000	    -16.66704992	     -4.50161418	     -5.69894417
      0.58333333	      3.89194712	      2.88778150	      0.61662297	      0.58424913	      1.01392934	     -0.01847283	     18.34967242	     -5.43497010	     -5.32939326	      0.91152098	      1.77590185	     -0.00000040	      0.00000000	    -19.73439028	      5.49113487	      2.17403859	     -1.68798228	     10.29340704	      0.00000069	      0.00000000	    -16.78700879	     -4.34807292	     -6.14104818
      0.60000000	      3.89458059	      2.90493959	      0.65650305	      0.58492072	      1.01121298	     -0.01659251	     18.57631412	     -5.26594381	     -4.80173946	      0.82123241	      1.96738289	     -0.00000048	      0.00000000	    -20.67348551	      5.28541800	      2.40662555	     -2.32510943	     10.86960294	      0.00000086	      0.00000000	    -16.64504129	     -4.11252761	     -5.89306247
      0.61666667	      3.79662782	      2.65116514	      0.93062897	      0.58552007	      1.00887288	     -0.01419402	     19.23834871	     -4.86900908	     -4.84437056	     -0.91077869	      1.72103735	     -0.00000092	      0.00000000	    -21.18135934	      4.67771356	      2.74183037	     -3.55054059	     11.57376633	      0.00000122	      0.00000000	    -16.55518235	     -3.59343148	     -5.98093606
      0.63333333	      3.75888890	      2.60850261	      1.46434842	      0.58647875	      1.00732273	     -0.01178533	     19.94972475	     -4.78678803	     -5.20569261	     -3.65564585	      1.07604965	     -0.00000154	      0.00000000	    -21.55924953	      4.16995447	      3.41703984	     -5.12682948	     12.05965460	      0.00000153	      0.00000000	    -16.52490265	     -3.25166383	     -6.28034400
      0.65000000	      3.63190111	      2.45693628	      1.95211127	      0.58797147	      1.00604917	     -0.00878192	     20.76313912	     -4.59213261	     -5.66512131	     -6.85916875	      0.06949019	     -0.00000220	      0.00000000	    -21.73268445	      3.55583592	      4.07034755	     -6.91678388	     12.37113414	      0.00000202	      0.00000000	    -16.30706496	     -2.85827858	     -6.64980717
      0.66666667	      3.49380060	      2.39595191	      2.33794137	      0.58992658	      1.00546541	     -0.00626404	     21.46655021	     -4.53873051	     -5.95028370	    -10.05020457	     -1.03272516	     -0.00000262	      0.00000000	    -21.67829899	      3.15112091	      4.69550535	     -9.13536819	     12.37147199	      0.00000243	      0.00000000	    -16.02903482	     -2.36316882	     -6.83259183
      0.68333333	      3.57183796	      2.35290597	      2.46557856	      0.59160682	      1.00563723	     -0.00344701	     22.07994995	     -4.45255781	     -5.90649308	    -13.60532872	     -1.64176477	     -0.00000298	      0.00000000	    -21.48304317	      2.89370429	      5.08761803	    -12.01582497	     12.08246973	      0.00000293	      0.00000000	    -15.93529794	     -1.88913982	     -6.71774986
      0.70000000	      3.84950569	      2.07694635	      2.76661398	      0.59499441	      1.00691430	     -0.00104110	     22.12141804	     -4.20492687	     -5.99779572	    -16.86833984	     -1.68077683	     -0.00000340	      0.00000000	    -21.22310177	      2.36531608	      5.46416602	    -15.47237126	     11.29620471	      0.00000362	      0.00000000	    -16.06392656	     -1.19055182	     -6.81730887
      0.71666667	      4.12211551	      1.82459682	      2.99318055	      0.59804050	      1.00868931	      0.00137688	     21.69633352	     -3.94423311	     -6.06282377	    -19.23464394	     -1.55345887	     -0.00000352	      0.00000000	    -20.34660688	      1.93541460	      5.55786595	    -19.90914562	     10.02871617	      0.00000451	      0.00000000	    -16.06053976	     -0.40113425	     -6.94444725
      0.73333333	      4.23739993	      1.67365023	      3.14877342	      0.60028406	      1.01025602	      0.00445529	     21.33406901	     -3.73160245	     -6.12314215	    -21.34845008	     -1.10908654	     -0.00000349	      0.00000000	    -18.34991063	      1.64022333	      5.21661608	    -25.87634509	      8.28094882	      0.00000571	      0.00000000	    -15.96139308	      0.06879956	     -6.79618418
      0.75000000	      4.32342160	      1.39524488	      3.22495516	      0.60291862	      1.01218192	      0.00756576	     20.55225475	     -3.33713111	     -6.31688129	    -22.68119429	     -0.42832924	     -0.00000304	      0.00000000	    -15.91939518	      1.13236565	      4.28339595	    -32.17141699	      5.49467808	      0.00000675	      0.00000000	    -15.81147778	      0.64109851	     -6.99685995
      0.76666667	      4.25623460	      1.04153035	      3.33060664	      0.60485679	      1.01395145	      0.01054774	     19.76238685	     -2.83758621	     -6.54147646	    -23.64600637	      0.56135017	     -0.00000278	      0.00000000	    -12.75355343	      0.32417370	      2.81878383	    -38.91183856	      1.87966671	      0.00000770	      0.00000000	    -15.56561961	      1.26513401	     -6.67542488
      0.78333333	      4.18714855	      0.47374536	      3.40988859	      0.60542129	      1.01571581	      0.01404982	     18.74476447	     -2.02205663	     -6.84029376	    -23.95503482	      1.48268326	     -0.00000241	      0.00000000	     -9.32514190	     -0.97981230	      1.09799523	    -45.40759666	     -2.02681280	      0.00000760	      0.00000000	    -15.41027089	      1.99669851	     -6.27512850
      0.80000000	      4.20778017	     -0.29430368	      3.31307288	      0.60594812	      1.01749402	      0.01775664	     17.58307922	     -0.89189674	     -6.94521037	    -24.10726662	      2.55277732	     -0.00000242	      0.00000000	     -6.01309847	     -2.72504660	     -0.82004244	    -51.35176491	     -5.41079756	      0.00000649	      0.00000000	    -15.32011027	      2.88464761	     -5.47152143
      0.81666667	      4.28613026	     -1.10877977	      3.36631043	      0.60619620	      1.01987881	      0.02159340	     16.00631045	      0.30824691	     -7.19758806	    -23.51685870	      3.40085250	     -0.00000240	      0.00000000	     -3.00115927	     -4.57640861	     -2.16086034	    -56.34181144	     -7.39427427	      0.00000428	      0.00000000	    -15.14819636	      3.75252396	     -5.24107128
      0.83333333	      4.39244049	     -1.58608302	      3.37883259	      0.60598780	      1.02266713	      0.02500472	     14.39211365	      1.16317873	     -7.24849052	    -22.87538311	      4.21312365	     -0.00000240	      0.00000000	     -0.19829874	     -5.92054710	     -3.09628085	    -60.51796192	     -7.77854650	      0.00000168	      0.00000000	    -15.17703335	      4.21739441	     -4.58596047
      0.85000000	      4.50837497	     -1.93204781	      3.22017929	      0.60561127	      1.02578368	      0.02830120	     12.58828544	      1.92017800	     -7.10264479	    -21.82631980	      4.81703378	     -0.00000242	      0.00000000	      2.40343031	     -6.86384824	     -3.74087902	    -63.88127465	     -6.86647396	     -0.00000076	      0.00000000	    -15.32273229	      4.42695467	     -3.90874976
      0.86666667	      4.69228018	     -1.97295518	      3.00618336	      0.60518277	      1.02913482	      0.03122551	     10.75210646	      2.32392142	     -6.82223001	    -20.89645189	      5.40546587	     -0.00000228	      0.00000000	      4.73211245	     -7.25322997	     -4.20341604	    -66.34985483	     -5.37360514	     -0.00000260	      0.00000000	    -15.43010089	      4.36246903	     -3.13909871
      0.88333333	      4.68530856	     -1.83318749	      2.85961059	      0.60412446	      1.03234931	      0.03379700	      8.94491406	      2.49944872	     -6.60249053	    -19.53670004	      5.78311407	     -0.00000214	      0.00000000	      7.21085225	     -7.17204521	     -4.32592026	    -68.04167789	     -3.85596935	     -0.00000362	      0.00000000	    -15.49055126	      4.05698686	     -2.77337988
